<?xml version="1.0" encoding="UTF-8" standalone="no"?>
<!-- Created by Flowgorithm 4.5.0 (http://flowgorithm.org) -->

<svg xmlns:svg="http://www.w3.org/2000/svg" xmlns="http://www.w3.org/2000/svg" version="1.1" width="1333" height="2790">
	<rect x="0" y="0" width="1333" height="2790" fill="#FFFFFF"/>
	<g>
		<polyline fill="none" stroke="#404040" stroke-width="8" stroke-dasharray="none" points="682,155 682,230"/>
		<polygon fill="#404040" stroke="none" points="682,248 699,217 664,217"/>
		<polyline fill="none" stroke="#404040" stroke-width="8" stroke-dasharray="none" points="682,2542 682,2617"/>
		<polygon fill="#404040" stroke="none" points="682,2635 699,2604 664,2604"/>
		<g>
			<path fill="#F0E0FF" stroke="#9070A0" stroke-width="4" stroke-dasharray="none" d="M 558,31 A 62 62, 0, 0 0, 558 155 L 806,155 A 62 62, 0, 0 0, 806 31 Z"/>
			<text x="682" y="49" fill="#301040" font-family="Arial" font-size="32pt" text-anchor="middle" direction="ltr">
				<tspan x="682" dy="62" unicode-bidi="embed">Anlauf</tspan>
			</text>
		</g>
		<g>
			<path fill="#F0E0FF" stroke="#9070A0" stroke-width="4" stroke-dasharray="none" d="M 558,2635 A 62 62, 0, 0 0, 558 2759 L 806,2759 A 62 62, 0, 0 0, 806 2635 Z"/>
			<text x="682" y="2653" fill="#301040" font-family="Arial" font-size="32pt" text-anchor="middle" direction="ltr">
				<tspan x="682" dy="62" unicode-bidi="embed">Ende</tspan>
			</text>
		</g>
		<g>
			<polyline fill="none" stroke="#404040" stroke-width="8" stroke-dasharray="none" points="682,403 682,478"/>
			<polygon fill="#404040" stroke="none" points="682,496 699,465 664,465"/>
			<polyline fill="none" stroke="#404040" stroke-width="8" stroke-dasharray="none" points="682,651 682,726"/>
			<polygon fill="#404040" stroke="none" points="682,744 699,713 664,713"/>
			<polyline fill="none" stroke="#404040" stroke-width="8" stroke-dasharray="none" points="682,868 682,943"/>
			<polygon fill="#404040" stroke="none" points="682,961 699,930 664,930"/>
			<polyline fill="none" stroke="#404040" stroke-width="8" stroke-dasharray="none" points="682,1085 682,1191"/>
			<polygon fill="#404040" stroke="none" points="682,1209 699,1178 664,1178"/>
			<polyline fill="none" stroke="#404040" stroke-width="8" stroke-dasharray="none" points="682,1333 682,1718"/>
			<polygon fill="#404040" stroke="none" points="682,1736 699,1705 664,1705"/>
			<polyline fill="none" stroke="#404040" stroke-width="8" stroke-dasharray="none" points="682,2325 682,2400"/>
			<polygon fill="#404040" stroke="none" points="682,2418 699,2387 664,2387"/>
			<g>
				<path fill="#FFFFD8" stroke="#A0A078" stroke-width="4" stroke-dasharray="none" d="M 496,248 L 496,403 L 868,403 L 868,248 Z"/>
				<polyline fill="none" stroke="#A0A078" stroke-width="4" stroke-dasharray="none" points="496,279 868,279"/>
				<polyline fill="none" stroke="#A0A078" stroke-width="4" stroke-dasharray="none" points="527,248 527,403"/>
				<text x="697" y="297" fill="#404018" font-family="Arial" font-size="32pt" text-anchor="middle" direction="ltr">
					<tspan x="697" dy="62" unicode-bidi="embed">Integer zahl</tspan>
				</text>
			</g>
			<g>
				<path fill="#FFFFD8" stroke="#A0A078" stroke-width="4" stroke-dasharray="none" d="M 434,496 L 434,651 L 930,651 L 930,496 Z"/>
				<polyline fill="none" stroke="#A0A078" stroke-width="4" stroke-dasharray="none" points="434,527 930,527"/>
				<polyline fill="none" stroke="#A0A078" stroke-width="4" stroke-dasharray="none" points="465,496 465,651"/>
				<text x="697" y="545" fill="#404018" font-family="Arial" font-size="32pt" text-anchor="middle" direction="ltr">
					<tspan x="697" dy="62" unicode-bidi="embed">Integer ergebnis</tspan>
				</text>
			</g>
			<g>
				<path fill="#FFFFD8" stroke="#A0A078" stroke-width="4" stroke-dasharray="none" d="M 496,744 L 496,868 L 868,868 L 868,744 Z"/>
				<text x="682" y="762" fill="#404018" font-family="Arial" font-size="32pt" text-anchor="middle" direction="ltr">
					<tspan x="682" dy="62" unicode-bidi="embed">zahl = 8</tspan>
				</text>
			</g>
			<g>
				<path fill="#FFFFD8" stroke="#A0A078" stroke-width="4" stroke-dasharray="none" d="M 496,961 L 496,1085 L 868,1085 L 868,961 Z"/>
				<text x="682" y="979" fill="#404018" font-family="Arial" font-size="32pt" text-anchor="middle" direction="ltr">
					<tspan x="682" dy="62" unicode-bidi="embed">ergebnis = 0</tspan>
				</text>
			</g>
			<g>
				<polyline fill="none" stroke="#404040" stroke-width="8" stroke-dasharray="none" points="868,1271 1085,1271 1085,1377"/>
				<polygon fill="#404040" stroke="none" points="1085,1395 1102,1364 1067,1364"/>
				<polyline fill="none" stroke="#404040" stroke-width="8" stroke-dasharray="none" points="1085,1519 1085,1612 744,1612 744,1350"/>
				<polygon fill="#404040" stroke="none" points="744,1333 726,1363 761,1363"/>
				<g>
					<path fill="#FFFFD8" stroke="#A0A078" stroke-width="4" stroke-dasharray="none" d="M 868,1395 L 868,1519 L 1302,1519 L 1302,1395 Z"/>
					<text x="1085" y="1413" fill="#404018" font-family="Arial" font-size="32pt" text-anchor="middle" direction="ltr">
						<tspan x="1085" dy="62" unicode-bidi="embed">zahl = zahl - 2</tspan>
					</text>
				</g>
				<g>
					<path fill="#FFE0B0" stroke="#A08050" stroke-width="4" stroke-dasharray="none" d="M 558,1209 L 496,1271 L 558,1333 L 806,1333 L 868,1271 L 806,1209 Z"/>
					<text x="682" y="1227" fill="#402000" font-family="Arial" font-size="32pt" text-anchor="middle" direction="ltr">
						<tspan x="682" dy="62" unicode-bidi="embed">zahl &gt; 1</tspan>
					</text>
				</g>
				<text x="961" y="1165" fill="#404040" font-family="Arial" font-size="32pt" text-anchor="middle" direction="ltr">
					<tspan x="961" dy="62" unicode-bidi="embed">Wahr</tspan>
				</text>
				<text x="573" y="1351" fill="#404040" font-family="Arial" font-size="32pt" text-anchor="middle" direction="ltr">
					<tspan x="573" dy="62" unicode-bidi="embed">Falsch</tspan>
				</text>
			</g>
			<g>
				<polyline fill="none" stroke="#404040" stroke-width="8" stroke-dasharray="none" points="868,1860 1085,1860 1085,2028"/>
				<polygon fill="#404040" stroke="none" points="1085,2046 1102,2015 1067,2015"/>
				<polyline fill="none" stroke="#404040" stroke-width="8" stroke-dasharray="none" points="1085,2170 1085,2294 730,2294"/>
				<polygon fill="#404040" stroke="none" points="713,2294 743,2311 743,2276"/>
				<polyline fill="none" stroke="#404040" stroke-width="8" stroke-dasharray="none" points="496,1860 248,1860 248,2028"/>
				<polygon fill="#404040" stroke="none" points="248,2046 265,2015 230,2015"/>
				<polyline fill="none" stroke="#404040" stroke-width="8" stroke-dasharray="none" points="248,2170 248,2294 633,2294"/>
				<polygon fill="#404040" stroke="none" points="651,2294 620,2276 620,2311"/>
				<g>
					<path fill="#FFD8D8" stroke="#A07878" stroke-width="4" stroke-dasharray="none" d="M 682,1736 L 465,1860 L 682,1984 L 899,1860 Z"/>
					<text x="682" y="1816" fill="#401818" font-family="Arial" font-size="32pt" text-anchor="middle" direction="ltr">
						<tspan x="682" dy="62" unicode-bidi="embed">zahl == 0</tspan>
					</text>
				</g>
				<g>
					<path fill="#FFFFD8" stroke="#A0A078" stroke-width="4" stroke-dasharray="none" d="M 899,2046 L 899,2170 L 1271,2170 L 1271,2046 Z"/>
					<text x="1085" y="2064" fill="#404018" font-family="Arial" font-size="32pt" text-anchor="middle" direction="ltr">
						<tspan x="1085" dy="62" unicode-bidi="embed">ergebnis = 1</tspan>
					</text>
				</g>
				<g>
					<path fill="#FFFFD8" stroke="#A0A078" stroke-width="4" stroke-dasharray="none" d="M 62,2046 L 62,2170 L 434,2170 L 434,2046 Z"/>
					<text x="248" y="2064" fill="#404018" font-family="Arial" font-size="32pt" text-anchor="middle" direction="ltr">
						<tspan x="248" dy="62" unicode-bidi="embed">ergebnis = 0</tspan>
					</text>
				</g>
				<ellipse cx="682" cy="2294" rx="31" ry="31" fill="#FFD8D8" stroke="#A07878" stroke-width="4"/>
				<text x="992" y="1754" fill="#404040" font-family="Arial" font-size="32pt" text-anchor="middle" direction="ltr">
					<tspan x="992" dy="62" unicode-bidi="embed">Wahr</tspan>
				</text>
				<text x="356" y="1754" fill="#404040" font-family="Arial" font-size="32pt" text-anchor="middle" direction="ltr">
					<tspan x="356" dy="62" unicode-bidi="embed">Falsch</tspan>
				</text>
			</g>
			<g>
				<path fill="#D8FFD8" stroke="#78A078" stroke-width="4" stroke-dasharray="none" d="M 434,2418 L 372,2542 L 930,2542 L 992,2418 Z"/>
				<text x="682" y="2436" fill="#184018" font-family="Arial" font-size="32pt" text-anchor="middle" direction="ltr">
					<tspan x="682" dy="62" unicode-bidi="embed">Anzeigen: ergebnis</tspan>
				</text>
			</g>
		</g>
	</g>
</svg>
