<?xml version="1.0" encoding="UTF-8" standalone="no"?>
<!-- Created by Flowgorithm 4.5.0 (http://flowgorithm.org) -->

<svg xmlns:svg="http://www.w3.org/2000/svg" xmlns="http://www.w3.org/2000/svg" version="1.1" width="1116" height="2325">
	<rect x="0" y="0" width="1116" height="2325" fill="#FFFFFF"/>
	<g>
		<polyline fill="none" stroke="#404040" stroke-width="8" stroke-dasharray="none" points="341,155 341,230"/>
		<polygon fill="#404040" stroke="none" points="341,248 358,217 323,217"/>
		<polyline fill="none" stroke="#404040" stroke-width="8" stroke-dasharray="none" points="341,2077 341,2152"/>
		<polygon fill="#404040" stroke="none" points="341,2170 358,2139 323,2139"/>
		<g>
			<path fill="#F0E0FF" stroke="#9070A0" stroke-width="4" stroke-dasharray="none" d="M 217,31 A 62 62, 0, 0 0, 217 155 L 465,155 A 62 62, 0, 0 0, 465 31 Z"/>
			<text x="341" y="49" fill="#301040" font-family="Arial" font-size="32pt" text-anchor="middle" direction="ltr">
				<tspan x="341" dy="62" unicode-bidi="embed">Anlauf</tspan>
			</text>
		</g>
		<g>
			<path fill="#F0E0FF" stroke="#9070A0" stroke-width="4" stroke-dasharray="none" d="M 217,2170 A 62 62, 0, 0 0, 217 2294 L 465,2294 A 62 62, 0, 0 0, 465 2170 Z"/>
			<text x="341" y="2188" fill="#301040" font-family="Arial" font-size="32pt" text-anchor="middle" direction="ltr">
				<tspan x="341" dy="62" unicode-bidi="embed">Ende</tspan>
			</text>
		</g>
		<g>
			<polyline fill="none" stroke="#404040" stroke-width="8" stroke-dasharray="none" points="341,403 341,478"/>
			<polygon fill="#404040" stroke="none" points="341,496 358,465 323,465"/>
			<polyline fill="none" stroke="#404040" stroke-width="8" stroke-dasharray="none" points="341,651 341,726"/>
			<polygon fill="#404040" stroke="none" points="341,744 358,713 323,713"/>
			<polyline fill="none" stroke="#404040" stroke-width="8" stroke-dasharray="none" points="341,868 341,943"/>
			<polygon fill="#404040" stroke="none" points="341,961 358,930 323,930"/>
			<polyline fill="none" stroke="#404040" stroke-width="8" stroke-dasharray="none" points="341,1085 341,1191"/>
			<polygon fill="#404040" stroke="none" points="341,1209 358,1178 323,1178"/>
			<polyline fill="none" stroke="#404040" stroke-width="8" stroke-dasharray="none" points="341,1333 341,1935"/>
			<polygon fill="#404040" stroke="none" points="341,1953 358,1922 323,1922"/>
			<g>
				<path fill="#FFFFD8" stroke="#A0A078" stroke-width="4" stroke-dasharray="none" d="M 155,248 L 155,403 L 527,403 L 527,248 Z"/>
				<polyline fill="none" stroke="#A0A078" stroke-width="4" stroke-dasharray="none" points="155,279 527,279"/>
				<polyline fill="none" stroke="#A0A078" stroke-width="4" stroke-dasharray="none" points="186,248 186,403"/>
				<text x="356" y="297" fill="#404018" font-family="Arial" font-size="32pt" text-anchor="middle" direction="ltr">
					<tspan x="356" dy="62" unicode-bidi="embed">Integer n</tspan>
				</text>
			</g>
			<g>
				<path fill="#FFFFD8" stroke="#A0A078" stroke-width="4" stroke-dasharray="none" d="M 124,496 L 124,651 L 558,651 L 558,496 Z"/>
				<polyline fill="none" stroke="#A0A078" stroke-width="4" stroke-dasharray="none" points="124,527 558,527"/>
				<polyline fill="none" stroke="#A0A078" stroke-width="4" stroke-dasharray="none" points="155,496 155,651"/>
				<text x="356" y="545" fill="#404018" font-family="Arial" font-size="32pt" text-anchor="middle" direction="ltr">
					<tspan x="356" dy="62" unicode-bidi="embed">Integer summe</tspan>
				</text>
			</g>
			<g>
				<path fill="#FFFFD8" stroke="#A0A078" stroke-width="4" stroke-dasharray="none" d="M 155,744 L 155,868 L 527,868 L 527,744 Z"/>
				<text x="341" y="762" fill="#404018" font-family="Arial" font-size="32pt" text-anchor="middle" direction="ltr">
					<tspan x="341" dy="62" unicode-bidi="embed">n = 5</tspan>
				</text>
			</g>
			<g>
				<path fill="#FFFFD8" stroke="#A0A078" stroke-width="4" stroke-dasharray="none" d="M 155,961 L 155,1085 L 527,1085 L 527,961 Z"/>
				<text x="341" y="979" fill="#404018" font-family="Arial" font-size="32pt" text-anchor="middle" direction="ltr">
					<tspan x="341" dy="62" unicode-bidi="embed">summe = 0</tspan>
				</text>
			</g>
			<g>
				<polyline fill="none" stroke="#404040" stroke-width="8" stroke-dasharray="none" points="527,1271 806,1271 806,1377"/>
				<polygon fill="#404040" stroke="none" points="806,1395 823,1364 788,1364"/>
				<polyline fill="none" stroke="#404040" stroke-width="8" stroke-dasharray="none" points="806,1736 806,1829 403,1829 403,1350"/>
				<polygon fill="#404040" stroke="none" points="403,1333 385,1363 420,1363"/>
				<g>
					<polyline fill="none" stroke="#404040" stroke-width="8" stroke-dasharray="none" points="806,1519 806,1594"/>
					<polygon fill="#404040" stroke="none" points="806,1612 823,1581 788,1581"/>
					<g>
						<path fill="#FFFFD8" stroke="#A0A078" stroke-width="4" stroke-dasharray="none" d="M 527,1395 L 527,1519 L 1085,1519 L 1085,1395 Z"/>
						<text x="806" y="1413" fill="#404018" font-family="Arial" font-size="32pt" text-anchor="middle" direction="ltr">
							<tspan x="806" dy="62" unicode-bidi="embed">summe = summe + n</tspan>
						</text>
					</g>
					<g>
						<path fill="#FFFFD8" stroke="#A0A078" stroke-width="4" stroke-dasharray="none" d="M 620,1612 L 620,1736 L 992,1736 L 992,1612 Z"/>
						<text x="806" y="1630" fill="#404018" font-family="Arial" font-size="32pt" text-anchor="middle" direction="ltr">
							<tspan x="806" dy="62" unicode-bidi="embed">n = n - 1</tspan>
						</text>
					</g>
				</g>
				<g>
					<path fill="#FFE0B0" stroke="#A08050" stroke-width="4" stroke-dasharray="none" d="M 217,1209 L 155,1271 L 217,1333 L 465,1333 L 527,1271 L 465,1209 Z"/>
					<text x="341" y="1227" fill="#402000" font-family="Arial" font-size="32pt" text-anchor="middle" direction="ltr">
						<tspan x="341" dy="62" unicode-bidi="embed">n &gt; 0</tspan>
					</text>
				</g>
				<text x="620" y="1165" fill="#404040" font-family="Arial" font-size="32pt" text-anchor="middle" direction="ltr">
					<tspan x="620" dy="62" unicode-bidi="embed">Wahr</tspan>
				</text>
				<text x="232" y="1351" fill="#404040" font-family="Arial" font-size="32pt" text-anchor="middle" direction="ltr">
					<tspan x="232" dy="62" unicode-bidi="embed">Falsch</tspan>
				</text>
			</g>
			<g>
				<path fill="#D8FFD8" stroke="#78A078" stroke-width="4" stroke-dasharray="none" d="M 93,1953 L 31,2077 L 589,2077 L 651,1953 Z"/>
				<text x="341" y="1971" fill="#184018" font-family="Arial" font-size="32pt" text-anchor="middle" direction="ltr">
					<tspan x="341" dy="62" unicode-bidi="embed">Anzeigen: summe</tspan>
				</text>
			</g>
		</g>
	</g>
</svg>
